<?xml version="1.0" standalone="no"?>
<!DOCTYPE svg PUBLIC "-//W3C//DTD SVG 20010904//EN"
 "http://www.w3.org/TR/2001/REC-SVG-20010904/DTD/svg10.dtd">
<svg version="1.0" xmlns="http://www.w3.org/2000/svg"
 width="858.000000pt" height="858.000000pt" viewBox="0 0 858.000000 858.000000"
 preserveAspectRatio="xMidYMid meet">
<metadata>
Created by potrace 1.14, written by Peter Selinger 2001-2017
</metadata>
<g transform="translate(0.000000,858.000000) scale(0.100000,-0.100000)"
fill="#000000" stroke="none">
<path d="M4811 8171 c-8 -11 -18 -18 -23 -15 -4 3 -8 -2 -8 -10 0 -8 -5 -18
-12 -22 -7 -5 -8 -3 -3 6 5 9 4 11 -4 6 -6 -4 -9 -11 -6 -16 3 -4 -2 -13 -11
-20 -12 -11 -12 -15 -2 -21 10 -6 8 -9 -6 -9 -11 0 -16 -5 -13 -13 3 -7 -4
-19 -15 -26 -17 -11 -18 -15 -7 -22 11 -7 10 -9 -4 -9 -10 0 -16 -4 -12 -9 3
-5 0 -13 -6 -16 -5 -4 -8 -14 -5 -22 3 -8 1 -11 -4 -8 -5 3 -12 -6 -16 -20 -3
-14 -10 -25 -15 -25 -5 0 -9 -7 -9 -16 0 -9 -8 -23 -17 -31 -10 -8 -13 -12 -7
-9 6 3 11 -1 11 -8 0 -8 -7 -12 -15 -8 -10 3 -13 1 -8 -6 4 -7 2 -12 -4 -12
-6 0 -8 -4 -5 -10 3 -5 1 -10 -4 -10 -6 0 -11 -7 -11 -15 0 -8 -10 -25 -21
-36 -14 -14 -18 -24 -10 -28 7 -5 4 -12 -9 -21 -11 -8 -20 -21 -20 -29 0 -7
-8 -20 -17 -28 -10 -8 -12 -11 -5 -8 11 6 11 3 0 -14 -7 -12 -16 -21 -21 -21
-4 0 -5 -5 -2 -10 3 -6 -1 -13 -9 -16 -9 -3 -16 -10 -16 -16 0 -5 6 -6 13 -3
6 4 4 0 -5 -8 -10 -8 -18 -22 -18 -31 0 -9 -5 -16 -11 -16 -5 0 -7 -4 -4 -10
3 -5 1 -10 -4 -10 -6 0 -11 -7 -11 -16 0 -8 -5 -12 -10 -9 -6 4 -9 3 -8 -2 5
-19 -15 -54 -28 -49 -8 3 -14 1 -14 -5 0 -6 -7 -9 -15 -5 -8 3 -15 0 -15 -6 0
-7 -5 -6 -15 2 -12 10 -15 10 -15 -1 0 -10 -3 -10 -12 -1 -7 7 -17 8 -30 1
-13 -7 -18 -6 -18 3 0 9 -3 10 -8 2 -4 -6 -15 -10 -24 -8 -10 1 -18 -2 -18 -6
0 -5 -13 -5 -30 0 -21 6 -30 5 -30 -3 0 -7 -4 -6 -10 3 -5 8 -10 11 -10 5 0
-5 -13 -10 -30 -10 -16 0 -30 3 -30 7 0 4 -6 5 -13 2 -8 -3 -19 2 -26 10 -7 8
-20 12 -28 9 -10 -4 -14 -2 -10 4 4 6 0 18 -8 26 -8 9 -15 20 -15 25 0 6 -7
13 -16 16 -9 4 -14 9 -11 13 4 3 -3 14 -15 24 -11 11 -18 19 -14 19 4 0 -5 12
-19 27 -14 15 -25 36 -25 45 0 10 -7 18 -16 18 -8 0 -13 4 -10 9 3 5 -1 11 -9
15 -8 3 -15 12 -15 21 0 8 -5 15 -11 15 -5 0 -7 5 -4 10 3 6 1 10 -4 10 -6 0
-11 7 -11 16 0 8 -4 12 -10 9 -5 -3 -10 3 -10 14 0 13 -7 21 -17 21 -15 0 -16
2 -3 10 13 8 12 10 -4 10 -12 0 -16 5 -13 15 4 8 1 17 -5 21 -7 5 -8 2 -3 -6
5 -9 4 -11 -3 -6 -7 4 -12 14 -12 22 0 8 -4 14 -10 14 -5 0 -10 7 -10 15 0 8
-4 15 -10 15 -5 0 -10 7 -10 15 0 8 -5 15 -11 15 -5 0 -7 5 -4 10 3 6 -1 10
-10 10 -9 0 -13 5 -10 10 3 6 1 10 -4 10 -6 0 -17 15 -25 33 -8 17 -28 47 -45
66 -16 19 -28 38 -25 42 2 4 -1 11 -7 15 -8 4 -9 3 -5 -4 4 -7 2 -12 -3 -12
-6 0 -11 5 -11 10 0 7 -6 7 -20 0 -13 -7 -20 -7 -20 -1 0 7 -9 7 -25 1 -17 -6
-25 -6 -25 1 0 6 -5 7 -12 2 -18 -11 -32 -10 -39 0 -4 6 -13 6 -20 1 -8 -5
-25 -10 -39 -12 -14 -2 -32 -10 -41 -18 -13 -12 -19 -12 -24 -3 -6 8 -10 7
-17 -4 -5 -9 -15 -14 -23 -11 -8 4 -15 2 -15 -4 0 -6 -8 -9 -17 -8 -10 2 -20
0 -23 -5 -6 -8 -51 -20 -86 -23 -14 -1 -20 -6 -16 -15 4 -10 -1 -12 -16 -6
-15 4 -22 2 -22 -7 0 -11 -2 -11 -9 0 -7 11 -9 11 -14 -2 -4 -9 -13 -13 -22
-10 -8 4 -15 1 -15 -7 0 -7 -3 -9 -7 -6 -3 4 -13 1 -21 -6 -13 -10 -14 -9 -7
3 7 12 6 13 -7 3 -8 -7 -18 -10 -21 -6 -4 3 -7 1 -7 -6 0 -8 -8 -11 -20 -8
-11 3 -18 1 -14 -4 3 -5 -2 -9 -10 -9 -26 0 -30 -1 -43 -11 -7 -7 -13 -5 -16
3 -4 9 -6 8 -6 -3 -1 -11 -10 -16 -28 -16 -14 0 -32 -8 -38 -17 -7 -9 -18 -16
-25 -16 -7 0 -10 -7 -6 -16 3 -8 2 -12 -4 -9 -9 5 -12 -1 -9 -21 0 -4 -5 -10
-12 -15 -11 -6 -10 -9 4 -15 9 -3 14 -11 10 -17 -9 -15 -11 -47 -3 -47 8 0 5
-43 -4 -58 -4 -7 -2 -12 5 -12 8 0 8 -4 -1 -15 -10 -11 -10 -15 0 -15 6 0 10
-6 7 -12 -2 -7 0 -21 5 -30 5 -11 5 -18 -1 -18 -6 0 -6 -11 -1 -30 6 -20 5
-30 -2 -30 -7 0 -7 -4 1 -13 6 -8 8 -17 4 -20 -3 -4 -2 -7 4 -7 5 0 10 -7 10
-15 0 -8 -5 -15 -10 -15 -5 0 -4 -7 3 -15 7 -8 8 -15 3 -15 -7 0 -8 -17 -4
-63 1 -5 5 -6 9 -3 4 2 8 -4 8 -15 0 -10 -4 -19 -9 -19 -4 0 -6 -4 -2 -10 3
-5 6 -25 7 -45 1 -19 5 -35 9 -35 5 0 4 -11 -1 -25 -5 -14 -6 -25 -1 -25 10 0
9 -19 -2 -37 -4 -6 -3 -14 2 -18 6 -3 10 -25 9 -49 0 -24 3 -49 6 -55 4 -6 2
-11 -4 -11 -6 0 -8 -5 -5 -10 4 -6 1 -17 -5 -25 -7 -8 -9 -15 -4 -16 5 0 -1
-4 -13 -9 -13 -5 -23 -17 -23 -25 0 -9 -4 -13 -10 -10 -5 3 -10 1 -10 -6 0 -7
-3 -9 -7 -6 -3 4 -17 -5 -30 -19 -13 -15 -27 -24 -30 -21 -7 7 -27 -12 -36
-33 -3 -9 -6 -10 -6 -3 -1 9 -7 8 -20 -4 -11 -9 -17 -21 -14 -26 4 -6 1 -7 -7
-2 -8 5 -18 2 -26 -9 -7 -10 -15 -17 -18 -17 -17 1 -35 -12 -29 -22 3 -6 1 -7
-6 -3 -6 4 -19 2 -28 -6 -12 -9 -15 -9 -9 0 4 7 1 12 -8 12 -9 0 -16 -5 -16
-11 0 -8 -4 -8 -15 1 -8 6 -19 9 -25 5 -5 -3 -10 -1 -10 5 0 7 -7 10 -15 6 -8
-3 -15 -1 -15 4 0 5 -14 15 -30 24 -17 8 -28 10 -25 5 3 -5 -1 -6 -9 -3 -9 3
-16 11 -16 18 0 6 -5 4 -10 -4 -8 -13 -10 -12 -10 4 0 16 -2 17 -17 5 -9 -8
-14 -9 -10 -3 4 7 0 18 -9 25 -13 10 -17 10 -25 -2 -8 -12 -13 -6 -10 13 0 3
-7 5 -17 4 -9 -2 -22 3 -30 10 -7 7 -20 10 -29 7 -11 -4 -14 -3 -9 5 5 8 -1
12 -18 12 -14 0 -26 4 -26 9 0 5 -7 12 -16 15 -10 4 -13 2 -8 -7 6 -8 3 -8 -9
1 -9 8 -22 10 -28 6 -7 -4 -9 -3 -6 3 8 13 -20 26 -35 16 -7 -3 -8 -1 -4 5 5
8 0 12 -13 12 -12 0 -21 5 -21 10 0 6 -8 10 -17 10 -9 0 -26 8 -37 18 -20 16
-20 16 -7 -1 12 -15 12 -17 -3 -11 -9 3 -16 11 -16 16 0 6 -7 8 -15 4 -8 -3
-15 -1 -15 4 0 6 -9 10 -20 10 -11 0 -20 5 -20 12 0 6 -3 8 -7 5 -3 -4 -12 1
-20 11 -12 16 -13 15 -6 -3 6 -20 6 -20 -15 -2 -11 11 -25 16 -30 13 -6 -3
-12 0 -15 7 -7 19 -80 20 -103 1 -10 -8 -13 -12 -5 -8 9 5 12 3 7 -5 -4 -6
-11 -9 -16 -6 -12 8 -42 -25 -36 -41 3 -9 0 -11 -11 -7 -10 4 -14 2 -10 -4 4
-6 0 -14 -9 -17 -9 -4 -14 -9 -11 -12 7 -7 -29 -44 -43 -44 -5 0 -9 -3 -9 -7
3 -18 -1 -33 -9 -30 -4 1 -7 -1 -7 -5 0 -4 -9 -14 -20 -22 -11 -9 -16 -16 -11
-16 5 0 -6 -14 -25 -31 -19 -18 -28 -28 -20 -24 9 5 12 4 7 -3 -4 -7 -14 -12
-22 -12 -8 0 -13 -3 -13 -7 3 -20 -2 -34 -11 -28 -5 3 -10 -1 -10 -9 0 -9 -8
-16 -17 -16 -15 0 -16 -2 -3 -10 13 -9 7 -14 -12 -11 -8 1 -12 -15 -9 -31 0
-5 -3 -8 -8 -8 -17 0 -42 -32 -37 -46 3 -8 0 -11 -10 -7 -13 5 -19 -8 -15 -30
1 -5 -3 -6 -9 -2 -5 3 -10 1 -10 -5 0 -6 -4 -9 -9 -6 -5 3 -12 -1 -15 -10 -4
-10 -2 -13 7 -8 8 6 8 3 -1 -9 -8 -9 -18 -15 -24 -14 -6 1 -12 -9 -14 -23 -3
-14 -12 -31 -21 -37 -13 -10 -14 -13 -2 -13 12 0 12 -2 -1 -10 -13 -9 -13 -10
0 -10 13 0 13 -1 0 -10 -11 -7 -11 -10 -2 -10 7 0 10 -4 7 -10 -3 -5 -1 -10 5
-10 7 0 9 -7 6 -16 -3 -8 -2 -12 3 -9 5 3 12 -4 16 -15 4 -11 11 -18 16 -15 5
4 9 -1 9 -10 0 -10 5 -13 12 -9 6 4 8 3 5 -3 -4 -6 6 -25 23 -42 18 -20 27
-38 23 -48 -4 -10 -2 -14 4 -10 10 6 53 -35 53 -51 0 -4 9 -14 20 -22 14 -10
16 -16 7 -22 -8 -5 -6 -8 6 -8 10 0 16 -4 13 -9 -3 -5 1 -12 10 -15 8 -3 12
-11 8 -17 -4 -7 -3 -10 2 -7 5 3 15 0 22 -8 7 -8 10 -14 6 -14 -4 0 3 -8 14
-19 12 -10 19 -21 15 -25 -3 -3 -1 -6 5 -6 7 0 12 -5 12 -10 0 -6 12 -22 26
-35 14 -13 25 -26 25 -29 -3 -20 1 -25 14 -20 11 5 13 2 9 -10 -4 -11 -1 -16
12 -16 16 0 17 -2 4 -10 -13 -8 -12 -10 3 -10 10 0 15 -4 12 -10 -3 -5 -1 -10
4 -10 6 0 11 -7 11 -16 0 -10 6 -14 15 -10 8 3 14 2 14 -2 -2 -14 13 -52 21
-52 4 0 10 -13 12 -30 3 -17 0 -30 -6 -30 -6 0 -4 -5 4 -10 8 -5 10 -10 3 -10
-6 0 -9 -9 -5 -22 4 -16 2 -19 -9 -13 -11 6 -11 5 -2 -5 9 -10 8 -16 -3 -27
-8 -8 -12 -19 -9 -24 4 -5 1 -9 -4 -9 -6 0 -11 -9 -11 -20 0 -11 -4 -20 -9
-20 -5 0 -12 -7 -15 -16 -3 -8 -2 -12 4 -9 5 3 3 -7 -5 -22 -16 -30 -38 -83
-39 -96 -1 -4 -6 -11 -12 -15 -6 -4 -10 -15 -9 -24 2 -9 -4 -19 -12 -22 -8 -3
-11 -11 -7 -18 5 -8 2 -9 -10 -5 -9 4 -14 3 -11 -2 7 -12 -35 -42 -47 -35 -4
3 -8 1 -8 -5 0 -5 -9 -8 -20 -6 -11 2 -20 0 -20 -5 0 -5 -7 -7 -15 -4 -8 4
-21 1 -28 -4 -8 -7 -18 -7 -27 -2 -8 5 -19 5 -26 -1 -11 -9 -56 -18 -101 -21
-13 -1 -23 -5 -23 -10 0 -4 -6 -5 -14 -2 -8 3 -17 0 -21 -6 -5 -8 -11 -8 -21
1 -8 6 -14 7 -14 2 0 -5 -11 -10 -25 -11 -54 -4 -60 -5 -72 -15 -9 -6 -13 -6
-13 1 0 5 -9 8 -20 5 -11 -3 -18 -8 -16 -12 3 -4 -8 -6 -22 -5 -15 0 -30 -4
-34 -10 -5 -8 -8 -7 -8 2 0 10 -4 10 -22 0 -13 -6 -33 -11 -45 -9 -11 1 -24
-2 -27 -7 -3 -5 -19 -8 -36 -6 -16 2 -30 -1 -30 -7 0 -6 -5 -7 -11 -3 -8 4
-10 -11 -7 -50 2 -33 -1 -56 -7 -56 -5 0 -3 -5 5 -10 13 -9 13 -10 0 -10 -13
0 -13 -1 0 -10 13 -9 13 -10 0 -10 -13 0 -13 -1 0 -10 13 -9 13 -10 0 -11 -10
0 -8 -3 5 -9 l20 -9 -20 0 c-17 -1 -17 -3 -5 -11 13 -9 13 -10 0 -10 -13 0
-13 -1 0 -10 11 -7 11 -10 2 -10 -10 0 -10 -5 -2 -20 8 -15 8 -20 -2 -20 -9 0
-9 -3 2 -10 13 -9 13 -10 0 -10 -13 0 -13 -1 0 -10 13 -9 13 -10 0 -10 -9 0
-11 -3 -5 -8 13 -9 13 -72 0 -72 -5 0 -3 -5 5 -10 13 -9 13 -10 0 -10 -13 0
-13 -1 0 -10 13 -9 13 -10 0 -10 -13 0 -13 -1 0 -10 13 -9 13 -10 0 -10 -13 0
-13 -1 0 -10 11 -7 11 -10 2 -10 -10 0 -10 -5 -2 -20 8 -15 8 -20 -2 -20 -9 0
-9 -3 2 -10 13 -9 13 -10 0 -10 -13 0 -13 -1 0 -10 13 -9 13 -10 0 -10 -13 0
-13 -1 0 -10 13 -9 13 -10 0 -10 -13 0 -13 -1 0 -10 8 -5 11 -10 5 -10 -11 0
-11 -72 0 -89 3 -6 1 -11 -5 -11 -6 0 -8 -5 -5 -11 9 -14 12 -99 4 -99 -4 0
-3 -16 1 -35 5 -24 4 -35 -4 -35 -6 0 -4 -5 4 -10 13 -9 13 -10 0 -10 -13 0
-13 -1 0 -10 13 -9 13 -10 0 -10 -12 0 -13 -2 -1 -9 11 -7 11 -9 0 -14 -11 -4
-11 -6 -1 -6 8 -1 10 -6 6 -13 -6 -10 -4 -10 7 0 17 16 30 16 26 0 -1 -8 7
-13 21 -12 12 1 22 -2 22 -7 0 -4 13 -10 30 -14 16 -4 30 -12 30 -18 0 -8 3
-8 9 1 7 11 11 11 24 -2 9 -9 27 -17 41 -18 14 -1 26 -6 26 -10 0 -4 11 -8 25
-8 14 0 25 -4 25 -10 0 -5 5 -10 11 -10 5 0 7 6 4 13 -4 6 0 4 9 -7 8 -10 19
-15 25 -11 6 3 11 1 11 -4 0 -6 11 -11 25 -11 14 0 25 -4 25 -9 0 -5 7 -12 16
-15 10 -4 13 -2 8 7 -6 9 -5 9 8 0 8 -7 18 -10 21 -6 4 3 7 1 7 -5 0 -7 9 -12
20 -12 11 0 20 -6 20 -12 0 -9 4 -8 10 2 6 10 10 11 10 3 0 -7 9 -13 20 -13
11 0 20 -6 20 -12 0 -10 2 -10 8 -1 6 9 12 7 22 -7 8 -11 20 -20 28 -20 7 0
12 -8 10 -17 -2 -10 2 -17 9 -16 7 2 10 -4 7 -12 -4 -8 -1 -15 6 -15 10 0 10
-3 1 -14 -8 -10 -9 -16 -1 -21 6 -3 8 -11 5 -16 -4 -5 0 -9 7 -9 11 0 10 -2 0
-9 -11 -7 -11 -9 2 -14 13 -5 14 -12 6 -32 -7 -19 -7 -24 1 -19 8 5 10 -1 7
-20 -3 -14 -1 -29 4 -32 5 -3 7 -12 4 -20 -3 -8 0 -14 7 -14 8 0 8 -3 -2 -9
-11 -7 -11 -9 0 -13 9 -3 13 -17 11 -41 -2 -24 1 -37 8 -37 7 0 10 -6 7 -13
-2 -7 -1 -33 3 -59 3 -26 3 -45 -2 -42 -4 3 -8 -4 -8 -16 0 -11 -7 -23 -15
-26 -8 -4 -13 -10 -10 -14 3 -5 -4 -11 -15 -15 -11 -4 -18 -11 -15 -16 4 -5 1
-9 -5 -9 -6 0 -8 -5 -4 -12 5 -7 3 -8 -5 -4 -8 5 -30 -10 -58 -41 -26 -26 -43
-41 -38 -33 4 8 -1 6 -12 -5 -11 -11 -19 -23 -17 -26 2 -3 -8 -11 -21 -17 -14
-7 -25 -18 -25 -27 0 -8 -3 -14 -8 -14 -20 3 -32 -2 -32 -16 0 -8 -4 -15 -10
-15 -15 0 -61 -51 -54 -61 3 -5 2 -9 -3 -8 -15 4 -43 -13 -37 -22 3 -5 -2 -9
-10 -9 -9 0 -16 -4 -16 -9 0 -5 -9 -12 -20 -16 -11 -3 -19 -12 -17 -18 1 -7
-4 -11 -12 -9 -9 2 -11 -3 -7 -15 4 -9 4 -14 0 -11 -10 10 -46 -11 -39 -23 6
-8 -8 -13 -27 -10 -4 0 -5 -6 -2 -13 3 -9 -3 -17 -15 -21 -12 -3 -20 -9 -18
-13 2 -4 -12 -23 -32 -42 -19 -19 -26 -24 -15 -10 l19 25 -22 -19 c-14 -12
-20 -23 -15 -30 5 -6 6 -22 2 -36 -4 -17 -1 -29 9 -38 13 -11 13 -12 1 -6 -11
6 -10 2 3 -13 9 -11 14 -23 10 -26 -3 -4 -1 -7 5 -7 7 0 12 -7 12 -15 0 -9 7
-18 15 -21 8 -4 12 -10 9 -15 -3 -5 1 -9 8 -9 9 0 9 -3 -2 -10 -10 -6 -11 -10
-2 -10 6 0 12 -7 12 -15 0 -9 6 -18 14 -21 8 -3 13 -14 11 -25 -2 -11 0 -17 6
-14 5 4 9 -3 9 -14 0 -12 5 -21 10 -21 6 0 10 -7 10 -15 0 -8 6 -15 13 -15 9
0 9 -2 0 -8 -9 -6 -5 -13 12 -26 13 -10 21 -24 18 -32 -3 -8 0 -14 7 -14 6 0
9 -4 5 -9 -3 -5 2 -16 10 -24 8 -9 15 -23 15 -31 0 -9 5 -16 10 -16 6 0 10 -9
10 -20 0 -11 4 -20 9 -20 5 0 12 -7 15 -16 4 -10 2 -13 -7 -9 -6 4 -4 0 5 -8
10 -8 15 -17 11 -20 -3 -4 -1 -7 6 -7 7 0 9 -4 6 -10 -3 -5 -2 -10 3 -10 6 0
13 -7 16 -16 3 -8 2 -12 -4 -9 -6 3 -7 -1 -4 -9 3 -9 9 -14 13 -11 4 2 14 -5
22 -16 17 -25 56 -49 44 -27 -6 10 -5 11 6 0 17 -16 49 -16 49 1 0 9 3 8 9 -2
7 -11 13 -10 35 4 20 14 26 14 26 4 0 -11 2 -11 10 1 5 8 10 11 10 6 0 -5 8
-2 17 5 15 12 16 12 8 -1 -7 -12 -6 -13 7 -2 13 10 46 19 96 24 6 1 12 6 12
12 0 6 5 4 10 -4 6 -9 10 -10 10 -3 0 6 8 12 18 12 44 2 62 6 62 13 0 4 9 5
20 3 11 -2 20 1 20 7 0 6 3 8 7 5 3 -4 13 -1 21 6 13 9 14 9 8 0 -4 -7 -2 -13
3 -13 6 0 11 3 11 8 0 4 11 8 25 9 47 4 55 6 55 17 0 6 5 4 10 -4 7 -11 10
-11 10 -2 0 7 5 10 11 7 5 -4 19 1 30 11 19 17 20 17 13 -2 -7 -18 -6 -18 12
-3 10 9 25 14 32 12 6 -3 12 1 12 7 0 10 3 10 14 1 10 -8 16 -9 21 -1 3 6 11
8 16 5 5 -4 9 -2 9 3 0 6 10 8 22 4 12 -3 19 -1 15 5 -3 5 0 10 8 10 8 0 15
-5 15 -11 0 -6 5 -4 10 4 8 12 10 12 10 1 0 -9 4 -10 13 -4 15 12 72 -9 60
-22 -5 -4 0 -5 9 -2 11 4 18 1 18 -7 0 -7 11 -19 25 -26 14 -7 24 -19 23 -26
-4 -16 51 -66 63 -58 5 3 9 2 8 -3 -4 -16 13 -43 27 -43 8 0 14 -10 14 -22 0
-19 2 -20 10 -8 7 11 10 11 10 2 0 -8 5 -10 12 -6 7 4 10 4 6 -1 -10 -11 30
-65 48 -65 8 0 14 -5 14 -12 0 -7 12 -23 27 -35 16 -14 21 -23 12 -24 -8 0 -6
-4 6 -9 11 -5 14 -9 6 -9 -11 -1 -11 -4 -1 -16 7 -8 8 -15 3 -15 -5 0 -10 -7
-10 -15 0 -8 5 -15 10 -15 5 0 4 -7 -3 -15 -6 -8 -9 -19 -5 -25 3 -5 1 -10 -6
-10 -6 0 -9 -8 -6 -20 3 -12 -1 -24 -11 -30 -10 -5 -12 -10 -4 -10 6 0 12 -5
12 -10 0 -6 -3 -9 -7 -9 -20 3 -24 -2 -13 -16 10 -12 9 -16 -2 -20 -10 -4 -13
-16 -10 -37 3 -18 1 -28 -5 -25 -6 4 -9 -6 -8 -23 1 -17 -3 -30 -8 -30 -6 0
-7 -3 -4 -7 4 -3 1 -13 -6 -21 -10 -13 -9 -14 3 -7 12 6 13 5 2 -6 -6 -7 -12
-26 -12 -41 0 -15 -4 -28 -9 -28 -6 0 -8 -9 -6 -20 2 -11 -1 -20 -6 -20 -6 0
-7 -4 -4 -10 3 -5 3 -16 -2 -22 -9 -16 -13 -35 -15 -66 0 -13 -7 -26 -15 -29
-10 -4 -11 -8 -3 -13 8 -5 7 -12 -5 -24 -10 -10 -12 -16 -4 -16 9 0 8 -4 -1
-15 -7 -8 -9 -15 -5 -15 4 0 3 -6 -2 -12 -5 -7 -9 -25 -8 -40 0 -15 -3 -24 -9
-21 -5 4 -7 -3 -4 -15 4 -12 3 -22 -1 -22 -3 0 -5 -18 -3 -40 2 -22 8 -37 13
-34 5 3 6 -2 3 -10 -4 -9 -1 -16 6 -16 7 0 21 -10 31 -22 11 -11 19 -15 19 -8
0 7 9 2 21 -11 11 -13 17 -18 14 -11 -6 11 -3 11 13 1 12 -7 18 -17 15 -22 -3
-5 0 -7 8 -5 8 3 20 -2 27 -11 10 -12 11 -12 6 -1 -5 8 4 5 20 -8 16 -12 35
-22 43 -22 7 0 16 -7 19 -15 4 -8 10 -12 15 -9 5 3 9 0 9 -5 0 -6 9 -11 20
-11 11 0 20 -4 20 -10 0 -5 7 -10 16 -10 8 0 12 -5 9 -11 -4 -6 -1 -9 6 -8 18
3 69 -21 69 -33 0 -4 9 -8 20 -8 11 0 20 -5 20 -11 0 -6 7 -8 17 -5 10 4 14 4
11 0 -4 -3 -1 -13 7 -20 17 -17 29 -18 19 -1 -4 6 4 1 19 -12 15 -13 31 -20
38 -16 8 5 10 4 5 -3 -4 -7 -1 -12 8 -12 9 0 16 -4 16 -10 0 -5 9 -10 19 -10
11 0 23 -5 26 -10 5 -8 11 -7 21 1 11 9 14 9 14 -1 0 -10 3 -10 15 0 8 6 19 9
25 5 5 -3 10 -2 10 2 0 5 7 18 16 29 8 10 12 12 8 4 -4 -8 6 -2 24 15 35 33
42 45 15 24 -10 -7 -7 -1 7 13 14 14 28 24 31 22 3 -2 11 8 17 21 7 14 18 25
27 25 8 0 14 5 13 11 -2 6 3 14 11 17 9 3 11 0 6 -8 -5 -8 -4 -11 3 -6 6 4 8
14 5 24 -3 9 -2 14 2 10 5 -5 13 2 20 15 6 12 17 21 23 19 7 -1 12 5 12 13 0
9 11 20 25 27 13 6 22 15 19 19 -3 5 2 9 10 9 8 0 18 5 22 12 5 7 3 8 -7 3
-12 -8 -12 -6 0 9 8 9 20 15 27 12 9 -3 11 1 7 12 -3 9 -2 14 2 10 5 -5 13 2
20 15 6 12 17 21 23 19 7 -1 12 5 12 13 0 9 11 20 25 27 13 6 22 16 18 21 -4
6 0 8 10 4 12 -4 14 -2 10 10 -4 11 -2 14 5 9 7 -4 12 -1 12 8 0 8 12 22 28
30 15 8 24 15 20 16 -5 0 2 11 14 25 12 14 28 23 35 21 7 -3 12 -2 12 2 -3 19
2 25 11 12 7 -11 10 -11 10 -2 0 7 5 10 10 7 6 -3 10 -2 10 3 0 6 14 7 33 3
17 -4 39 -7 47 -6 8 0 18 -4 22 -10 5 -6 8 -4 8 4 0 11 4 9 15 -5 10 -14 14
-15 15 -5 0 11 3 12 11 4 6 -6 18 -9 27 -6 10 4 13 2 8 -5 -4 -8 -2 -10 7 -6
8 3 17 1 20 -3 3 -5 20 -8 36 -7 17 1 31 -2 31 -7 0 -4 15 -7 34 -5 19 1 33
-1 30 -5 -2 -4 3 -9 11 -13 8 -3 15 0 15 6 0 7 7 3 16 -8 13 -16 15 -16 10 -1
-5 16 -4 16 21 0 15 -10 28 -17 30 -16 9 5 42 -11 37 -18 -3 -5 2 -9 11 -9 9
0 13 -5 10 -10 -3 -6 1 -10 10 -10 9 0 13 -4 10 -10 -3 -5 -1 -10 5 -10 6 0 9
-4 5 -9 -3 -5 -1 -12 5 -16 6 -4 8 -11 5 -16 -4 -5 0 -9 7 -9 9 0 9 -3 -2 -10
-10 -6 -11 -10 -2 -10 6 0 12 -11 12 -24 0 -13 4 -26 9 -28 5 -1 11 -14 13
-28 1 -14 9 -31 16 -39 11 -12 11 -15 0 -22 -11 -7 -11 -9 0 -9 8 0 12 -6 10
-12 -3 -7 1 -19 9 -26 7 -8 11 -18 7 -23 -3 -5 5 -23 17 -41 13 -17 17 -28 9
-23 -10 6 -12 4 -7 -9 4 -10 10 -29 13 -42 3 -13 14 -24 23 -25 9 0 11 -3 4
-5 -7 -3 -9 -12 -6 -20 3 -7 10 -11 17 -7 6 4 5 -1 -3 -10 -12 -15 -9 -21 11
-18 4 0 3 -11 -2 -25 -6 -14 -6 -23 -1 -20 5 3 12 -1 15 -10 3 -8 2 -12 -4 -9
-6 3 -7 -1 -4 -9 3 -9 11 -13 17 -9 6 4 8 0 4 -10 -3 -10 -2 -17 3 -17 5 0 7
-7 4 -15 -4 -8 -1 -15 4 -15 6 0 9 -9 7 -20 -2 -11 -1 -20 3 -20 4 0 9 -12 10
-27 1 -15 7 -30 14 -34 6 -4 8 -14 5 -22 -4 -10 2 -17 16 -21 12 -3 191 -6
398 -6 362 0 377 1 399 20 13 11 27 20 32 20 5 0 6 5 3 10 -3 6 -1 10 4 10 6
0 11 8 11 18 0 10 5 23 12 30 9 9 9 12 -1 12 -7 0 -9 5 -4 13 4 6 9 23 11 37
2 14 8 27 13 28 6 3 5 9 -2 18 -7 9 -8 14 -1 14 6 0 9 11 7 25 -1 14 1 25 5
25 4 0 7 10 7 22 1 43 3 49 16 42 8 -5 8 -2 -2 9 -7 9 -9 17 -4 17 6 0 10 8
10 17 0 33 3 44 11 40 4 -3 7 14 6 36 0 23 4 48 9 54 5 7 7 22 4 32 -3 12 1
22 10 25 10 4 11 10 3 25 -7 13 -7 22 0 26 5 3 10 15 10 26 0 10 6 19 13 19 7
0 8 3 2 8 -13 10 -16 44 -2 35 6 -4 8 2 5 15 -4 12 -2 22 4 22 6 0 8 7 4 15
-3 8 0 15 7 15 8 0 6 4 -3 10 -11 7 -11 10 -2 10 7 0 10 5 6 11 -3 6 0 15 7
20 12 7 12 9 0 9 -11 0 -10 4 5 16 10 8 12 12 4 8 -12 -7 -13 -5 -3 8 7 8 10
17 7 21 -3 3 4 8 15 12 12 3 19 10 16 15 -3 5 4 11 15 15 11 3 20 11 20 16 0
6 3 8 8 6 4 -3 24 3 45 13 20 10 34 13 30 7 -3 -7 4 -3 16 8 13 11 25 19 27
18 11 -8 34 -2 29 7 -3 5 0 7 8 4 8 -3 18 0 22 5 3 6 11 9 16 6 5 -4 9 -1 9 4
0 6 5 11 11 11 5 0 7 -5 4 -11 -4 -6 2 -5 13 2 12 7 19 17 16 21 -3 4 3 5 12
1 13 -5 15 -3 9 8 -8 12 -6 12 8 0 13 -10 17 -10 17 -1 0 7 7 10 15 6 8 -3 15
-1 15 5 0 6 4 8 9 4 5 -3 12 -1 16 5 4 6 11 8 16 5 5 -4 9 -2 9 4 0 7 8 7 26
1 14 -6 29 -8 33 -6 4 3 14 -4 21 -15 8 -10 19 -19 25 -19 5 0 21 -14 34 -30
13 -17 29 -30 37 -30 7 0 18 -8 23 -17 6 -10 11 -14 11 -10 0 14 30 -20 30
-35 0 -10 3 -9 10 2 8 13 10 12 10 -4 0 -11 3 -17 6 -13 4 3 12 1 20 -6 33
-30 44 -37 55 -37 7 0 10 -3 6 -6 -6 -7 16 -34 28 -34 4 0 13 -7 22 -15 8 -8
19 -13 24 -9 5 3 8 0 7 -7 -2 -7 7 -18 19 -24 13 -7 21 -14 19 -16 -2 -2 2
-10 10 -17 9 -8 14 -9 14 -2 0 7 5 6 14 -2 8 -7 12 -16 9 -20 -2 -5 1 -8 6 -8
12 0 40 -22 88 -67 19 -18 41 -33 49 -33 8 0 13 -3 11 -7 -3 -5 5 -17 16 -28
11 -11 16 -13 12 -5 -7 12 -6 13 6 3 9 -7 25 -11 37 -8 12 2 22 -1 22 -6 0 -5
14 -3 30 6 17 9 30 20 30 26 0 6 3 8 8 6 10 -7 32 19 24 27 -3 4 1 4 11 0 10
-3 17 -1 17 6 0 6 4 9 9 5 5 -3 12 4 16 15 3 11 9 19 13 19 20 -3 32 3 32 16
0 8 6 14 13 13 6 -2 11 3 9 10 -1 8 2 11 7 8 13 -8 42 4 35 15 -3 5 0 9 6 9 6
0 9 4 6 9 -4 5 4 7 16 4 13 -3 20 -3 16 2 -9 9 80 77 92 70 6 -4 7 1 3 11 -4
12 -3 15 5 10 7 -4 12 -2 12 3 0 6 7 11 16 11 9 0 14 6 11 13 -3 8 3 14 15 14
26 2 49 23 41 36 -3 5 -2 7 4 4 13 -8 75 34 103 70 12 15 19 21 15 13 -4 -8 1
-6 10 5 9 11 14 28 11 38 -2 9 -1 17 3 17 4 0 6 13 3 30 -2 16 -9 30 -14 30
-6 0 -4 8 3 17 10 11 10 14 2 9 -8 -4 -13 -1 -13 8 0 9 -6 16 -12 16 -9 0 -8
3 2 10 12 8 12 10 -2 15 -10 4 -15 15 -13 26 2 10 1 19 -3 19 -11 0 -34 59
-27 70 3 5 1 10 -5 10 -6 0 -8 5 -5 10 3 6 1 10 -4 10 -6 0 -11 11 -11 23 0
13 -9 32 -20 42 -13 12 -17 22 -11 29 6 7 4 18 -5 30 -7 10 -11 23 -8 27 3 5
0 9 -6 9 -6 0 -8 5 -5 10 3 6 1 10 -5 10 -7 0 -10 7 -6 15 3 8 -2 19 -12 24
-12 8 -13 10 -3 11 12 0 11 3 -1 18 -13 15 -25 46 -28 77 -1 6 -9 18 -17 28
-11 11 -12 17 -4 17 8 0 7 5 -3 16 -9 8 -14 20 -11 25 4 5 1 9 -6 9 -7 0 -9
10 -7 25 3 13 2 22 -3 20 -4 -3 -10 -1 -14 5 -3 5 0 10 7 10 8 0 6 5 -5 11 -9
6 -15 14 -12 20 4 5 1 9 -5 9 -7 0 -8 6 0 19 7 14 6 21 -3 24 -9 4 -9 6 1 6 7
1 10 6 7 11 -3 5 -2 10 4 10 6 0 8 7 5 15 -4 8 -2 15 3 15 4 0 19 18 33 39 13
22 28 38 32 35 4 -3 5 1 2 9 -3 8 0 18 7 23 8 5 10 3 4 -6 -5 -9 -4 -11 3 -6
7 4 12 14 12 21 0 8 9 19 21 25 17 10 18 14 7 28 -11 13 -11 15 3 10 11 -4 21
4 34 28 10 18 22 31 26 28 5 -3 6 2 3 11 -5 11 0 18 15 22 11 3 18 9 15 14 -3
5 8 12 25 15 17 4 29 10 26 14 -2 3 2 7 10 7 8 0 15 -4 15 -8 0 -5 11 -4 25 1
17 7 25 6 25 -1 0 -6 7 -9 15 -5 8 3 15 0 15 -7 0 -8 4 -6 10 3 9 13 10 13 10
0 0 -13 1 -13 10 0 9 13 10 13 10 0 0 -12 2 -12 9 -2 7 11 9 11 14 -1 5 -14
34 -16 55 -3 7 4 12 2 12 -4 0 -6 3 -9 8 -7 4 3 28 2 55 -3 28 -4 47 -3 47 3
0 5 6 4 14 -2 7 -6 21 -9 30 -5 9 3 16 1 16 -5 0 -7 8 -8 25 -1 20 8 27 6 32
-6 5 -13 7 -13 14 -2 7 10 9 10 9 0 0 -9 5 -10 19 -3 13 7 24 6 37 -3 13 -10
24 -11 36 -5 12 7 18 6 18 -2 0 -9 3 -9 14 0 11 9 15 9 19 -1 4 -10 6 -10 6 0
1 10 5 10 17 -2 12 -12 20 -13 35 -6 14 8 19 7 19 -2 0 -9 3 -9 10 2 7 12 10
12 10 1 0 -7 6 -11 15 -7 8 3 15 1 15 -5 0 -6 8 -5 21 2 12 6 24 7 28 3 12
-17 41 -11 66 12 14 13 31 24 37 24 6 0 8 13 6 29 -3 18 0 29 6 28 6 -1 10 6
8 16 -2 9 4 20 13 24 13 5 14 7 3 14 -9 6 -10 9 -1 9 7 0 10 7 6 17 -4 11 -3
14 5 9 8 -5 10 -2 6 8 -3 9 -2 16 4 16 6 0 9 11 8 25 -2 13 0 22 5 19 4 -2 11
11 15 31 3 19 10 32 15 29 5 -3 6 2 2 11 -3 10 -1 20 5 24 6 3 13 19 16 34 3
15 12 41 20 58 9 17 13 35 10 40 -3 5 -1 9 5 9 5 0 8 9 6 20 -2 11 0 18 6 15
5 -4 9 1 9 9 0 9 6 16 13 16 7 0 8 3 2 8 -5 4 -10 14 -10 22 0 8 5 18 10 22 6
5 5 8 -2 8 -7 0 -13 5 -13 11 0 5 6 7 13 3 8 -5 8 -2 -2 9 -7 9 -9 17 -4 17 5
0 10 7 10 15 0 8 -4 15 -9 15 -11 0 -6 23 7 32 6 5 5 8 -2 8 -9 0 -10 7 -5 23
9 26 8 69 -2 85 -3 6 0 13 6 15 10 4 9 6 -1 6 -11 1 -11 4 -1 17 11 12 11 15
-1 12 -8 -2 -13 3 -11 11 2 8 -3 11 -11 8 -8 -3 -20 3 -28 14 -7 10 -19 19
-26 19 -7 0 -13 5 -13 10 0 6 -5 10 -12 10 -7 0 -21 10 -33 23 -11 13 -18 18
-15 12 3 -6 -2 -3 -12 7 -9 10 -21 18 -26 18 -5 0 -13 7 -16 16 -4 9 -9 14
-13 11 -3 -4 -19 9 -36 28 -16 19 -33 32 -38 29 -5 -3 -20 7 -35 21 -14 14
-29 23 -34 20 -5 -3 -12 4 -15 15 -4 12 -11 20 -17 18 -6 -2 -26 11 -46 29
-19 18 -39 30 -44 27 -4 -3 -8 2 -8 10 0 9 -3 15 -7 15 -21 -3 -33 3 -33 17 0
9 -5 14 -12 12 -17 -6 -111 89 -102 103 5 8 3 9 -6 4 -10 -6 -12 -4 -7 8 4 10
1 17 -6 17 -8 0 -6 4 3 10 13 9 13 10 0 10 -13 0 -13 1 0 10 8 5 11 10 5 10
-5 0 -10 13 -11 30 -1 16 2 27 6 25 4 -2 7 2 7 10 0 8 -3 15 -7 15 -4 0 -7 7
-7 15 0 8 4 12 8 9 4 -2 10 0 14 6 3 5 3 10 -2 10 -4 0 -8 14 -8 30 0 17 2 30
5 30 3 0 4 20 3 45 0 25 3 48 8 51 5 3 9 14 9 25 0 11 4 18 9 14 5 -3 12 4 16
15 4 11 11 18 16 15 5 -4 9 -1 9 5 0 6 4 9 9 6 4 -3 19 3 31 14 12 11 27 17
31 14 5 -3 9 0 9 6 0 6 4 9 9 6 5 -3 14 1 21 9 7 8 16 12 21 9 5 -3 9 0 9 6 0
6 5 8 10 5 6 -3 10 -1 10 5 0 6 4 9 9 5 5 -3 12 -1 16 5 4 6 11 7 17 4 7 -4 8
-2 4 4 -7 11 -3 14 27 16 6 1 20 10 30 20 9 10 17 16 17 11 0 -4 8 -1 17 6 14
12 16 12 9 -1 -6 -12 -5 -12 6 1 14 16 48 33 61 31 4 -1 7 3 7 9 0 6 6 9 13 6
6 -2 20 5 30 16 9 11 17 17 17 12 0 -4 8 -1 17 6 14 12 16 12 9 -1 -4 -9 -1
-8 7 3 8 9 19 17 26 17 6 0 11 4 11 10 0 5 7 7 15 4 8 -4 15 -1 15 6 0 6 5 8
10 5 6 -3 10 -1 10 5 0 6 4 9 9 6 5 -3 14 1 21 9 6 7 19 11 27 8 11 -4 14 -2
9 5 -4 7 -4 12 1 13 29 3 48 9 51 18 2 6 10 11 18 11 8 0 14 5 14 11 0 5 5 7
10 4 6 -3 10 1 10 9 0 9 5 16 10 16 7 0 10 19 9 45 -2 25 -7 45 -12 45 -5 0
-3 8 4 17 12 14 12 16 0 9 -9 -6 -12 -5 -9 5 3 8 1 23 -5 34 -14 27 -16 55 -3
55 5 0 1 7 -10 15 -13 10 -14 14 -5 15 11 0 11 3 1 15 -6 8 -9 19 -5 25 3 5 2
10 -2 10 -5 0 -10 11 -11 26 -1 14 -7 34 -13 46 -8 16 -8 19 1 13 9 -6 9 -3 1
13 -6 11 -11 30 -11 41 0 12 -6 21 -12 21 -9 0 -9 3 1 9 12 8 13 12 1 26 -7 8
-13 29 -12 45 0 17 -4 30 -9 30 -6 0 -8 4 -5 9 4 5 0 12 -6 14 -10 4 -10 6 0
6 9 1 10 6 3 20 -6 10 -8 21 -5 24 3 3 2 12 -2 19 -5 7 -10 24 -12 38 -2 13
-8 30 -14 37 -7 9 -7 13 1 13 9 0 9 5 1 21 -7 11 -9 23 -6 26 3 3 -2 12 -12
20 -11 10 -12 12 -2 8 8 -4 5 2 -7 13 -13 11 -23 25 -23 31 0 5 -9 8 -20 6
-11 -2 -20 1 -20 7 0 7 -6 6 -15 -2 -8 -7 -15 -8 -15 -3 0 5 -26 11 -57 12
-31 1 -60 4 -65 7 -4 3 -8 0 -8 -7 0 -8 -4 -8 -12 -2 -7 6 -21 9 -30 8 -10 -2
-18 1 -18 6 0 5 -11 4 -25 -1 -16 -6 -25 -6 -25 1 0 6 -7 6 -20 -1 -14 -8 -20
-8 -20 0 0 8 -6 8 -20 0 -16 -9 -22 -8 -26 4 -4 11 -11 13 -23 7 -10 -6 -23
-5 -34 0 -12 7 -17 6 -17 -3 0 -9 -3 -9 -10 2 -6 9 -10 10 -10 3 0 -8 -9 -9
-29 -3 -16 4 -32 6 -35 2 -3 -3 -6 0 -6 7 0 8 -5 9 -18 2 -11 -6 -24 -6 -34 0
-11 6 -19 6 -23 -1 -4 -7 -12 -7 -25 0 -13 7 -21 7 -25 0 -5 -8 -11 -7 -21 0
-7 7 -49 12 -93 13 -51 0 -78 4 -74 10 4 6 0 8 -10 4 -10 -3 -17 -2 -17 4 0
15 -26 39 -34 32 -3 -4 -6 1 -6 10 0 8 -5 17 -10 19 -6 2 -12 13 -12 25 -1 13
-7 19 -15 16 -8 -3 -13 -2 -12 3 5 20 -15 70 -34 87 -11 9 -16 17 -11 17 5 0
2 6 -6 13 -16 13 -21 27 -24 64 0 13 -5 23 -10 23 -5 0 -4 6 1 13 6 6 9 20 8
30 -2 9 0 15 5 12 7 -4 22 19 24 38 1 4 8 12 16 17 8 5 11 10 7 10 -5 0 8 24
29 53 21 29 29 46 18 38 -10 -7 -7 -2 9 12 28 27 36 43 15 32 -7 -4 -6 -1 3 7
8 7 18 21 22 31 3 9 11 17 17 17 5 0 10 5 10 11 0 5 -6 7 -12 3 -9 -5 -9 -2 1
9 7 9 21 17 30 17 11 0 12 3 4 8 -8 5 -8 11 1 24 7 10 16 15 19 11 4 -3 4 4 2
16 -2 12 0 19 5 16 5 -3 12 5 16 17 4 13 10 25 13 28 4 3 15 22 25 43 10 22
22 35 28 31 6 -4 8 -3 5 3 -4 6 6 30 22 54 16 24 28 46 25 50 -2 4 4 10 13 13
15 6 15 8 3 16 -13 8 -12 10 3 10 9 0 17 7 17 15 0 8 5 15 10 15 6 0 9 3 9 8
-3 19 2 33 11 27 6 -3 10 -1 10 4 0 6 -6 11 -12 11 -10 0 -9 3 1 9 9 6 10 11
2 15 -6 4 -9 12 -5 17 3 6 -6 21 -21 33 -16 13 -24 29 -21 35 4 6 4 11 -1 10
-20 -3 -34 2 -28 11 3 6 0 10 -8 10 -8 0 -17 9 -20 20 -3 11 -12 20 -21 20
-10 0 -16 9 -17 23 0 12 -3 17 -6 10 -3 -10 -7 -10 -18 0 -7 7 -11 15 -8 20 2
4 -3 7 -11 7 -9 0 -16 5 -16 10 0 17 -40 51 -52 44 -6 -4 -8 -3 -5 4 4 5 -18
34 -48 64 -30 29 -55 59 -55 66 0 7 -4 10 -10 7 -9 -6 -14 8 -11 28 0 4 -2 6
-6 6 -21 -3 -33 2 -33 15 0 7 -8 20 -17 27 -17 13 -17 13 -3 -6 14 -19 14 -19
-2 -6 -10 7 -18 20 -18 27 0 8 -10 14 -22 15 -13 0 -18 3 -11 6 10 3 10 7 0
18 -7 7 -15 11 -19 8 -5 -2 -8 3 -8 11 0 8 -5 18 -12 22 -7 5 -9 2 -4 -7 4 -8
1 -5 -8 5 -8 10 -13 23 -10 27 3 5 -2 6 -10 3 -10 -4 -16 -1 -16 7 0 7 -3 9
-7 6 -3 -4 -12 -2 -20 4 -10 9 -13 8 -13 -2 0 -10 -3 -10 -11 -2 -8 8 -20 6
-46 -8 -19 -11 -39 -17 -44 -13 -5 3 -8 0 -7 -8 2 -7 -3 -12 -10 -10 -7 1 -15
-4 -18 -12 -3 -8 -11 -13 -18 -10 -6 2 -22 -5 -34 -16 -12 -11 -22 -17 -22
-13 0 4 -4 2 -9 -5 -4 -7 -17 -14 -29 -15 -11 0 -20 -6 -19 -11 2 -9 -2 -11
-34 -15 -5 0 -8 -5 -5 -10 3 -4 -4 -8 -17 -7 -12 0 -21 -4 -20 -10 1 -6 -14
-17 -32 -26 -21 -9 -32 -11 -29 -4 3 6 -1 3 -9 -6 -8 -10 -17 -15 -20 -11 -4
3 -7 1 -7 -6 0 -7 -4 -9 -10 -6 -5 3 -10 -1 -10 -10 0 -9 -4 -14 -9 -10 -5 3
-13 0 -16 -6 -4 -5 -13 -8 -20 -5 -7 2 -16 -2 -19 -10 -3 -8 -11 -13 -18 -12
-7 2 -11 -4 -10 -12 2 -8 0 -12 -3 -8 -4 4 -22 0 -39 -9 -17 -10 -35 -16 -40
-15 -5 2 -5 -5 -2 -15 6 -14 4 -15 -5 -6 -9 9 -16 7 -31 -10 -11 -12 -16 -15
-12 -7 7 12 5 13 -8 3 -8 -7 -19 -9 -23 -5 -5 4 -5 1 -1 -5 6 -11 -6 -18 -18
-10 -2 1 -14 -7 -27 -18 -13 -12 -19 -14 -14 -5 8 13 7 13 -8 1 -12 -9 -17
-10 -17 -2 0 7 -5 9 -12 4 -20 -12 -31 -10 -50 10 -10 9 -25 18 -33 18 -8 1
-19 2 -25 3 -5 0 -16 10 -25 21 -9 11 -13 13 -9 5 7 -13 6 -13 -12 0 -10 8
-22 19 -25 23 -3 4 -16 9 -27 10 -12 1 -22 8 -22 16 0 8 -3 12 -6 8 -4 -3 -13
0 -20 8 -8 7 -18 15 -23 17 -5 1 -11 14 -13 28 -2 14 -7 31 -12 38 -11 19 -13
102 -1 102 5 0 4 5 -3 12 -7 7 -8 17 -1 30 7 13 6 18 -3 18 -9 0 -9 3 2 10 12
7 12 10 1 10 -7 0 -11 6 -7 15 3 8 2 15 -3 15 -10 0 -8 31 3 49 5 8 4 16 -4
21 -15 10 -16 11 -1 38 8 15 8 22 1 22 -6 0 -8 5 -4 12 12 19 12 48 0 48 -6 0
-4 5 4 10 13 9 13 10 0 10 -13 0 -13 1 0 10 8 5 10 10 4 10 -6 0 -11 16 -12
35 -1 20 -4 40 -7 45 -4 6 0 10 7 10 9 0 9 3 -2 10 -11 7 -11 10 -2 10 9 0 10
5 4 15 -4 9 -5 39 -2 66 5 37 3 55 -7 65 -12 12 -12 14 4 15 10 0 13 3 7 5 -7
3 -9 14 -6 26 3 13 1 19 -5 15 -5 -3 -10 0 -10 8 0 8 5 15 10 15 5 0 4 6 -2
14 -9 11 -9 15 1 19 10 4 10 6 1 6 -7 1 -13 9 -13 19 0 23 -19 42 -42 42 -10
0 -18 4 -18 10 0 5 -13 8 -30 6 -16 -2 -31 1 -33 7 -2 6 -23 12 -47 14 -25 3
-47 8 -50 13 -3 5 -14 9 -25 9 -42 1 -55 5 -55 15 0 6 -5 4 -10 -4 -8 -12 -10
-12 -10 -1 0 9 -8 12 -25 9 -13 -3 -22 -2 -20 2 3 5 -3 11 -12 14 -9 4 -19 2
-23 -3 -4 -7 -15 -5 -32 3 -15 8 -29 12 -32 8 -3 -3 -6 1 -6 9 0 11 -2 11 -10
-1 -7 -12 -10 -12 -10 -1 0 7 -6 11 -15 7 -8 -3 -15 -1 -15 4 0 5 -7 7 -15 4
-8 -4 -15 -1 -15 6 0 10 -3 10 -14 1 -9 -8 -15 -8 -18 -2 -1 6 -15 12 -30 13
-16 1 -28 6 -28 10 0 4 -5 8 -11 8 -5 0 -7 -5 -4 -10 4 -6 -9 -2 -29 9 -22 13
-38 17 -42 10 -4 -6 -14 -3 -27 8 -11 10 -17 12 -13 6 4 -7 2 -13 -3 -13 -6 0
-11 5 -11 11 0 5 -4 8 -9 4 -5 -3 -13 -1 -16 5 -5 8 -11 8 -20 0 -9 -8 -14 -8
-17 0 -2 6 -10 2 -17 -9z m-492 -1641 c1 13 2 13 11 0 9 -13 10 -13 10 0 0 13
1 13 10 0 9 -13 10 -13 10 0 0 13 1 13 10 0 7 -11 10 -11 10 -2 0 10 5 10 20
2 15 -8 20 -8 20 2 0 9 3 9 10 -2 9 -13 10 -13 10 0 0 13 1 13 10 0 9 -13 10
-13 10 0 0 10 3 11 8 4 4 -6 15 -10 25 -8 9 1 17 -3 17 -9 0 -7 5 -5 10 3 8
12 10 12 10 1 0 -11 3 -11 17 0 15 12 16 12 8 -1 -8 -13 -7 -13 8 -1 9 7 17 9
17 3 0 -5 11 -12 25 -14 14 -3 25 -1 25 4 0 5 8 4 19 -1 10 -6 21 -7 25 -4 3
3 6 0 6 -8 0 -11 2 -11 10 1 5 8 10 10 10 4 0 -11 2 -11 58 -15 17 -1 32 -7
32 -12 0 -6 3 -7 7 -4 3 4 12 2 20 -4 9 -8 13 -8 13 -1 0 6 7 9 15 6 8 -4 12
-11 9 -16 -4 -6 3 -5 15 1 18 10 21 9 22 -6 0 -10 3 -13 5 -6 4 8 12 8 31 -2
15 -8 30 -12 35 -9 4 3 8 -1 8 -8 0 -9 3 -9 10 2 8 12 10 12 10 1 0 -8 3 -11
7 -8 3 4 12 2 19 -4 8 -6 20 -9 29 -6 8 4 19 -1 24 -11 6 -9 11 -13 11 -8 0 5
8 2 17 -5 11 -10 14 -10 9 -1 -10 17 -1 15 18 -3 8 -8 26 -16 40 -17 13 -1 22
-6 20 -10 -3 -4 5 -8 17 -8 12 0 28 -8 36 -17 10 -12 12 -13 8 -3 -4 10 -2 10
8 -2 11 -14 16 -15 27 -5 7 7 10 7 7 2 -3 -6 3 -17 15 -24 16 -10 19 -10 13 1
-3 7 0 5 8 -4 8 -10 17 -15 20 -11 4 3 7 1 7 -6 0 -6 6 -11 14 -9 8 2 22 -6
30 -17 l16 -20 -7 20 c-6 18 -5 18 13 -2 10 -12 26 -23 34 -25 8 -2 23 -12 33
-22 9 -10 17 -14 17 -7 0 9 4 8 14 -1 8 -7 11 -17 8 -22 -3 -5 0 -6 6 -2 6 3
13 2 17 -4 4 -6 10 -8 15 -5 4 3 11 -2 14 -11 3 -8 10 -13 15 -10 5 3 12 -1
15 -10 3 -8 9 -13 13 -11 11 7 34 -19 25 -27 -3 -4 0 -4 9 -1 8 3 30 -8 52
-28 20 -19 39 -32 42 -29 3 3 5 -2 5 -12 0 -9 4 -15 9 -12 5 3 11 -1 15 -9 3
-8 12 -15 21 -15 8 0 15 -7 15 -16 0 -8 4 -13 8 -10 5 3 15 -4 22 -15 8 -10
24 -19 35 -20 12 0 15 -3 7 -6 -10 -4 -8 -9 7 -20 12 -8 19 -19 16 -24 -3 -5
1 -6 9 -3 11 4 16 0 16 -10 0 -10 9 -16 23 -17 12 0 16 -3 9 -6 -10 -4 -8 -9
7 -20 12 -8 19 -19 15 -24 -3 -5 -2 -9 3 -8 22 4 34 -4 64 -43 20 -25 25 -37
14 -29 -12 9 -10 4 5 -11 14 -14 28 -23 33 -21 4 2 7 -5 7 -16 0 -15 6 -21 21
-21 16 0 19 -3 11 -13 -8 -10 -4 -19 18 -37 17 -14 30 -30 30 -37 0 -7 7 -13
15 -13 8 0 15 -5 15 -11 0 -5 -6 -7 -12 -4 -7 4 -2 -3 12 -16 14 -12 24 -26
22 -31 -1 -5 5 -11 13 -14 8 -3 12 -10 9 -15 -3 -5 0 -9 6 -9 6 0 9 -4 6 -8
-3 -5 4 -15 15 -22 20 -15 27 -36 8 -25 -6 4 -5 -2 3 -14 7 -12 16 -21 19 -21
4 0 9 -9 12 -21 4 -13 10 -18 18 -13 7 4 10 3 6 -3 -4 -6 0 -18 7 -29 8 -10
11 -25 8 -33 -3 -9 -1 -12 6 -7 8 5 12 0 12 -14 0 -11 6 -23 14 -26 8 -3 13
-16 11 -29 -1 -14 2 -22 6 -19 5 3 9 -2 9 -11 0 -14 18 -53 30 -65 3 -3 7 -16
8 -29 2 -13 11 -31 19 -40 12 -11 13 -16 3 -19 -9 -3 -9 -6 -1 -11 6 -4 14
-18 16 -32 3 -13 9 -25 15 -27 5 -2 10 -19 10 -38 0 -24 4 -33 12 -28 8 5 9 2
5 -11 -4 -9 -2 -25 5 -33 11 -13 11 -14 -2 -7 -9 5 -8 0 4 -13 14 -17 16 -22
5 -22 -12 0 -12 -2 0 -9 7 -5 11 -13 7 -19 -3 -5 1 -13 10 -16 12 -5 13 -10 6
-19 -7 -8 -7 -18 -2 -27 6 -8 10 -27 10 -42 0 -16 6 -28 13 -29 9 0 9 -2 -1
-6 -6 -2 -9 -10 -5 -16 10 -16 13 -35 14 -74 1 -18 6 -33 11 -33 6 0 5 -7 -3
-16 -10 -13 -10 -17 0 -24 8 -4 11 -12 9 -16 -3 -5 -2 -33 1 -61 5 -35 4 -53
-3 -53 -6 0 -4 -5 4 -10 11 -7 11 -10 2 -10 -10 0 -10 -5 -1 -22 8 -15 9 -23
1 -26 -7 -2 -7 -13 -2 -33 6 -19 5 -29 -2 -29 -6 0 -6 -6 2 -15 10 -12 10 -15
-1 -15 -11 0 -11 -2 1 -10 11 -7 11 -10 2 -10 -7 0 -10 -5 -7 -11 11 -17 13
-59 2 -59 -5 0 -4 -7 3 -15 10 -12 10 -15 -1 -15 -11 0 -11 -2 1 -10 13 -9 13
-10 0 -10 -12 0 -12 -2 -1 -9 9 -6 10 -11 2 -15 -6 -4 -9 -11 -6 -16 3 -5 1
-11 -4 -14 -6 -4 -6 -18 -1 -36 7 -23 5 -32 -7 -39 -10 -5 -12 -11 -5 -15 7
-4 7 -17 2 -38 -5 -17 -7 -35 -4 -39 3 -5 1 -9 -5 -9 -5 0 -8 -11 -6 -25 1
-14 -1 -25 -6 -25 -5 0 -6 -7 -2 -16 3 -9 0 -20 -8 -25 -12 -7 -12 -9 1 -9 12
-1 11 -3 -3 -11 -14 -8 -16 -14 -6 -25 9 -11 9 -14 -1 -14 -8 0 -10 -3 -7 -7
4 -3 1 -13 -6 -21 -10 -13 -9 -14 3 -7 9 5 8 0 -4 -13 -14 -17 -16 -22 -5 -22
9 0 10 -3 3 -8 -17 -11 -24 -40 -11 -46 7 -2 4 -5 -6 -5 -10 -1 -15 -5 -12
-11 3 -5 0 -10 -7 -10 -10 0 -9 -3 2 -10 12 -8 12 -10 -2 -15 -9 -4 -14 -13
-12 -20 3 -7 -2 -27 -11 -44 -9 -18 -13 -36 -10 -40 3 -5 0 -11 -6 -13 -6 -2
-12 -16 -12 -31 -1 -15 -8 -29 -15 -32 -7 -3 -10 -9 -7 -15 3 -5 1 -10 -4 -10
-6 0 -11 -9 -11 -21 0 -11 -7 -27 -15 -36 -8 -8 -13 -19 -10 -24 4 -5 1 -9 -5
-9 -6 0 -8 -4 -5 -10 3 -5 1 -10 -4 -10 -6 0 -11 -7 -11 -15 0 -8 -4 -15 -10
-15 -5 0 -6 -7 -3 -17 4 -10 2 -14 -4 -10 -10 6 -27 -27 -24 -45 1 -5 -4 -8
-10 -8 -5 0 -7 -5 -4 -10 3 -5 0 -10 -8 -10 -9 0 -13 -9 -12 -25 2 -14 -1 -23
-6 -19 -5 3 -9 0 -9 -6 0 -6 -5 -8 -12 -4 -7 4 -8 3 -4 -4 7 -12 1 -22 -42
-67 -14 -16 -18 -25 -10 -25 7 -1 2 -7 -12 -15 -15 -9 -19 -14 -10 -15 9 0 4
-7 -12 -18 -22 -15 -25 -21 -15 -31 9 -10 9 -12 -3 -9 -8 2 -14 -3 -13 -9 2
-7 -4 -13 -12 -13 -8 0 -15 -5 -15 -10 0 -18 -43 -70 -57 -70 -8 0 -11 -5 -7
-12 5 -7 2 -9 -9 -5 -11 4 -15 1 -12 -13 2 -11 -1 -23 -7 -26 -7 -5 -8 -2 -3
6 5 9 4 11 -3 6 -7 -4 -12 -14 -12 -22 0 -8 -5 -13 -12 -11 -6 1 -17 -8 -23
-20 -7 -13 -15 -20 -18 -17 -4 4 -11 -5 -16 -20 -6 -14 -13 -26 -16 -26 -4 0
-3 6 1 13 5 8 3 8 -9 -2 -9 -7 -15 -17 -12 -21 3 -5 -4 -11 -15 -15 -11 -4
-18 -11 -15 -16 4 -5 1 -10 -4 -10 -6 -1 -15 -2 -20 -3 -5 0 -13 -5 -18 -10
-5 -5 -3 -6 5 -2 6 4 12 2 12 -3 0 -10 -14 -15 -32 -12 -5 0 -8 -6 -8 -14 0
-15 -33 -38 -42 -29 -3 3 -17 -9 -31 -26 -14 -16 -31 -30 -37 -30 -6 0 -8 -5
-5 -10 3 -5 2 -10 -4 -10 -6 0 -26 -14 -46 -31 -19 -17 -35 -28 -35 -24 0 4
-7 2 -15 -5 -8 -6 -19 -9 -24 -5 -6 3 -8 0 -5 -8 3 -8 0 -18 -7 -23 -8 -5 -10
-3 -5 7 4 8 1 6 -8 -5 -8 -10 -19 -15 -24 -12 -6 3 -12 -1 -16 -9 -3 -8 -12
-15 -21 -15 -8 0 -15 -4 -15 -9 0 -5 -11 -12 -25 -15 -14 -4 -25 -11 -25 -17
0 -6 -4 -7 -10 -4 -5 3 -10 1 -10 -4 0 -6 -9 -11 -20 -11 -11 0 -20 -4 -20 -9
0 -5 -11 -12 -25 -15 -14 -4 -25 -11 -25 -17 0 -7 -6 -6 -17 2 -11 9 -14 10
-10 2 5 -8 -1 -15 -18 -19 -13 -3 -23 -10 -20 -14 3 -5 -4 -6 -15 -3 -12 3
-22 -1 -26 -10 -3 -9 -12 -13 -21 -10 -12 5 -14 3 -8 -7 5 -8 4 -11 -3 -7 -15
10 -43 -3 -35 -17 4 -7 1 -6 -9 2 -12 10 -20 8 -42 -13 -16 -15 -32 -22 -39
-18 -18 11 -38 12 -31 2 3 -5 -2 -9 -10 -9 -26 0 -30 -1 -43 -12 -7 -6 -13 -7
-13 -3 0 5 -10 0 -22 -11 -12 -10 -18 -13 -13 -5 6 11 4 13 -9 8 -10 -4 -22
-7 -27 -7 -6 0 -8 -4 -5 -8 3 -5 -5 -8 -17 -7 -12 1 -28 -2 -34 -8 -9 -6 -13
-5 -13 4 -1 10 -4 8 -11 -4 -8 -13 -14 -15 -28 -7 -14 7 -22 6 -32 -6 -8 -10
-14 -11 -19 -4 -4 6 -14 8 -23 4 -9 -3 -14 -11 -11 -16 4 -6 -2 -5 -14 1 -17
9 -23 8 -31 -6 -6 -11 -11 -13 -11 -5 0 8 -5 10 -12 6 -19 -12 -48 -12 -48 0
0 6 -4 5 -9 -3 -5 -8 -16 -11 -25 -8 -9 4 -16 3 -16 -1 0 -4 -16 -7 -35 -8
-21 0 -32 4 -29 10 3 6 -1 3 -9 -6 -10 -13 -16 -15 -25 -6 -9 9 -12 9 -12 -1
0 -10 -3 -11 -13 -3 -8 7 -18 7 -27 2 -9 -6 -17 -5 -22 3 -6 9 -8 8 -8 -2 0
-11 -3 -11 -15 -1 -12 10 -15 10 -15 0 0 -10 -3 -10 -15 0 -12 10 -15 10 -15
0 0 -10 -3 -10 -15 0 -12 10 -15 10 -15 0 0 -10 -3 -10 -15 0 -12 10 -15 10
-15 0 0 -9 -4 -9 -13 -2 -8 7 -18 7 -27 2 -8 -5 -21 -5 -32 1 -13 7 -18 6 -18
-3 0 -6 -7 -3 -15 8 -8 10 -15 14 -15 7 0 -8 -9 -9 -30 -3 -21 6 -30 5 -30 -3
0 -8 -3 -8 -12 1 -8 8 -15 9 -25 0 -11 -8 -12 -7 -7 6 6 16 -7 22 -20 9 -11
-11 -36 -12 -36 -1 0 6 -13 8 -30 6 -19 -3 -31 0 -35 10 -4 11 -8 12 -20 2
-12 -10 -15 -10 -15 0 0 7 -8 10 -20 7 -11 -3 -20 -1 -20 3 0 4 -9 6 -20 3
-12 -3 -20 0 -20 6 0 7 -8 11 -17 9 -10 -1 -24 1 -30 5 -8 5 -13 3 -13 -5 -1
-8 -6 -6 -15 6 -8 11 -21 16 -30 13 -8 -4 -15 -2 -15 3 0 5 -7 7 -15 4 -8 -4
-15 -2 -15 3 0 5 -8 10 -17 11 -48 4 -64 10 -84 28 -12 10 -19 13 -15 7 4 -7
2 -13 -3 -13 -6 0 -11 4 -11 8 0 4 -10 8 -22 9 -11 1 -25 7 -29 14 -4 7 -14 9
-23 6 -9 -4 -19 0 -24 9 -5 8 -18 16 -30 17 -12 1 -22 5 -22 10 0 4 -5 5 -10
2 -6 -3 -13 1 -16 10 -6 13 -8 14 -15 3 -7 -10 -9 -10 -9 0 0 6 -7 12 -15 12
-8 0 -15 5 -15 10 0 6 -9 10 -21 10 -11 0 -18 4 -14 9 3 6 -3 8 -14 6 -11 -2
-22 3 -25 11 -3 8 -12 14 -21 14 -8 0 -15 5 -15 10 0 6 -9 10 -20 10 -11 0
-20 4 -20 9 0 10 -39 27 -52 23 -5 -1 -8 5 -8 13 0 14 -12 19 -32 16 -5 0 -8
4 -8 9 0 6 -7 10 -15 10 -9 0 -18 7 -21 15 -4 8 -9 13 -13 10 -4 -2 -14 5 -21
16 -8 10 -19 19 -25 19 -5 0 -24 14 -42 30 -18 17 -37 30 -43 30 -6 0 -8 5 -5
10 3 6 0 10 -8 10 -8 0 -20 7 -27 15 -7 8 -16 12 -21 9 -5 -3 -6 3 -2 12 5 13
3 16 -10 11 -9 -3 -21 1 -29 11 -11 15 -11 16 2 7 9 -5 7 -2 -5 7 -59 50 -72
64 -67 76 3 8 -2 10 -14 5 -13 -5 -15 -3 -9 7 6 10 4 12 -8 7 -9 -3 -16 -3
-16 1 3 20 -3 31 -21 37 -11 3 -20 12 -20 18 0 7 -9 19 -19 27 -11 7 -18 17
-15 22 3 4 -2 8 -10 8 -9 0 -16 7 -16 16 0 8 -4 12 -10 9 -6 -3 -10 1 -10 9 0
9 -4 16 -10 16 -5 0 -10 7 -10 15 0 8 -7 15 -16 15 -8 0 -12 5 -9 10 3 6 1 10
-4 10 -6 0 -11 7 -11 15 0 8 -4 15 -10 15 -5 0 -10 7 -10 16 0 8 -4 12 -10 9
-5 -3 -10 3 -10 14 0 11 -11 28 -25 39 -13 11 -21 22 -18 26 3 3 1 6 -5 6 -7
0 -12 7 -12 15 0 8 -4 15 -10 15 -5 0 -10 12 -10 28 0 21 -2 24 -10 12 -9 -13
-10 -13 -11 0 -1 8 -1 18 0 23 0 4 -4 7 -10 7 -5 0 -7 5 -4 10 3 6 -1 10 -9
10 -10 0 -16 9 -16 25 0 14 -7 28 -15 31 -8 4 -12 10 -9 15 3 5 0 9 -5 9 -6 0
-11 5 -11 11 0 5 6 7 13 4 6 -4 2 2 -10 13 -13 11 -23 27 -23 36 0 9 -4 16
-10 16 -5 0 -10 8 -10 19 0 10 -7 24 -15 31 -8 7 -12 16 -9 22 3 5 0 15 -6 23
-7 8 -9 15 -4 15 5 0 0 7 -10 15 -14 11 -16 15 -5 15 11 0 12 2 1 9 -8 4 -14
12 -15 17 -1 5 -6 8 -11 6 -5 -2 -4 4 4 12 8 11 9 16 1 16 -6 0 -11 11 -11 24
0 14 -5 28 -10 31 -6 4 -8 11 -5 16 4 5 2 9 -4 9 -6 0 -8 7 -5 15 4 8 1 15 -5
15 -6 0 -8 7 -5 15 4 8 2 15 -4 15 -6 0 -8 10 -4 22 3 11 1 19 -4 16 -5 -4
-10 8 -11 24 -1 17 -8 36 -14 44 -9 11 -8 14 1 14 9 0 7 7 -5 20 -12 13 -14
20 -5 20 10 0 10 3 -1 16 -16 19 -19 54 -5 54 5 0 1 7 -10 15 -13 10 -14 14
-5 15 10 0 11 3 2 13 -6 8 -8 17 -4 20 3 4 1 7 -7 7 -10 0 -10 3 0 15 10 12
10 15 0 15 -10 0 -10 3 0 15 9 11 9 15 1 15 -7 0 -9 5 -6 10 3 6 0 10 -7 11
-10 0 -10 2 1 6 11 5 11 7 0 15 -11 8 -11 11 -1 15 10 4 9 10 -4 30 -9 14 -11
22 -5 19 6 -4 11 -2 11 3 0 6 -5 11 -10 11 -7 0 -7 7 1 21 8 15 8 19 0 15 -8
-5 -8 0 -1 18 7 19 6 26 -3 26 -8 0 -7 4 3 10 8 5 10 10 4 10 -6 0 -10 10 -8
23 1 12 3 22 4 22 1 0 3 10 4 23 2 12 -1 22 -6 22 -11 0 -6 23 7 32 6 5 5 8
-2 8 -9 0 -10 7 -3 26 7 16 7 23 0 19 -7 -4 -7 3 0 19 7 19 6 26 -3 26 -8 0
-7 4 3 10 8 5 10 10 4 10 -14 0 -13 32 1 42 6 5 4 8 -5 8 -12 1 -11 3 3 11 13
8 15 14 7 30 -8 14 -7 19 1 19 9 0 9 3 0 14 -9 11 -9 16 -1 21 7 4 10 16 7 26
-3 11 0 19 6 19 7 0 5 5 -3 10 -12 7 -12 10 -1 10 7 0 11 6 7 15 -3 8 -2 15 3
15 5 0 7 11 6 25 -2 14 2 25 8 25 7 0 6 4 -3 10 -12 7 -12 12 -2 22 6 6 12 19
12 28 0 8 7 28 15 43 8 15 10 25 5 22 -6 -4 -10 -1 -10 4 0 6 4 11 9 11 6 0 8
9 6 20 -2 11 0 20 5 20 5 0 7 9 5 20 -2 11 -1 20 3 20 4 0 9 10 9 22 1 13 7
24 13 26 5 2 7 8 4 13 -3 6 0 16 6 24 6 8 9 19 5 25 -3 5 2 10 12 10 14 0 15
2 4 9 -9 6 -10 11 -2 15 6 4 9 12 6 17 -4 5 -1 9 5 9 6 0 10 8 8 18 -2 9 2 16
9 15 7 -2 10 3 7 11 -3 8 3 29 12 48 10 18 19 35 19 38 5 28 18 49 27 44 6 -4
8 -2 5 3 -8 12 17 66 26 57 3 -3 3 4 0 17 -4 13 -2 20 3 16 6 -3 16 4 24 16
12 20 12 21 -3 8 -27 -22 -19 -4 11 25 15 15 20 23 12 20 -8 -4 -6 0 4 8 11 9
16 16 12 16 -4 0 0 7 8 16 9 8 14 19 11 24 -3 4 2 11 11 14 9 4 14 13 10 22
-3 8 -2 13 3 10 5 -3 15 2 22 11 12 14 12 16 -1 9 -9 -4 -8 -1 3 7 9 8 17 18
17 23 0 5 9 17 20 27 12 10 18 23 14 29 -4 7 -3 8 4 4 7 -4 12 -2 12 4 0 6 12
23 28 37 15 15 20 23 12 19 -8 -4 -3 4 13 18 15 14 27 29 26 33 -1 5 7 13 18
18 11 6 18 16 15 24 -3 8 0 11 6 7 6 -3 13 3 17 14 4 11 10 18 15 15 4 -3 14
3 21 12 10 12 10 14 2 9 -7 -4 -13 -5 -13 -1 0 3 12 10 26 15 14 6 22 14 19
20 -3 5 0 10 8 10 8 0 22 10 33 22 10 12 13 18 7 14 -7 -4 -13 -5 -13 -1 0 3
12 10 26 15 14 6 23 14 20 19 -3 5 4 11 15 14 15 4 20 11 15 23 -5 14 -4 15 9
4 12 -10 15 -10 15 4 0 10 5 14 10 11 6 -3 10 1 10 9 0 18 34 39 45 28 5 -4 5
-1 1 6 -4 7 -1 12 8 12 8 0 18 5 22 12 5 7 3 8 -6 3 -9 -5 -11 -4 -6 3 4 7 15
12 26 12 10 0 21 7 24 16 3 8 10 12 16 9 5 -3 10 1 10 10 0 9 5 13 10 10 6 -3
10 -2 10 3 0 6 11 13 25 16 14 4 23 11 20 16 -3 6 -1 10 6 10 6 0 18 8 26 18
8 9 12 12 9 6 -3 -6 1 -11 9 -11 8 0 12 3 10 7 -3 4 5 16 17 26 15 13 19 14
14 4 -4 -8 1 -5 12 8 22 24 38 30 26 10 -4 -7 4 -1 19 14 17 19 32 26 43 21
12 -4 15 -3 10 5 -7 11 6 16 41 15 6 0 9 6 6 13 -4 10 3 14 21 14 14 0 26 5
26 11 0 5 5 7 10 4 6 -3 13 0 16 9 3 9 12 12 21 9 11 -4 14 -2 9 5 -5 8 -2 10
8 6 9 -4 16 -1 16 6 0 7 7 10 15 6 8 -3 15 -1 15 5 0 6 5 7 10 4 6 -3 10 -1
10 4 0 6 8 11 18 11 10 0 23 5 30 12 7 7 12 9 12 5 0 -4 13 -1 30 8 16 8 38
15 50 15 11 0 20 4 20 9 0 6 9 8 20 6 11 -2 20 1 20 6 0 6 5 7 10 4 6 -3 10
-2 10 4 0 5 11 8 25 6 14 -1 25 2 25 7 0 5 5 6 10 3 6 -3 10 0 10 7 0 9 3 9
10 -2 6 -9 10 -11 10 -3 0 7 7 10 15 7 8 -4 15 -2 15 4 0 6 10 8 22 4 13 -3
19 -1 15 5 -4 6 6 9 23 8 17 -1 30 3 30 8 0 5 7 4 15 -3 12 -10 15 -10 15 0 0
8 3 10 7 7 3 -4 12 -2 19 4 8 7 14 7 19 -1 4 -7 13 -5 27 4 15 11 26 12 40 5
17 -9 22 -5 18 16 -1 6 4 5 11 -2 8 -8 18 -9 29 -3 9 5 22 5 30 0 14 -9 43 -2
36 9 -7 10 58 7 66 -4 5 -6 8 -4 8 5 0 13 1 13 10 0 9 -13 10 -13 10 0 0 13 1
13 10 0 7 -11 10 -11 10 -2 0 10 5 10 20 2 15 -8 20 -8 20 2 0 9 3 9 10 -2 9
-13 10 -13 10 0 0 13 1 13 10 0 8 -12 10 -12 11 5 l0 20 9 -20 c6 -13 9 -15 9
-5z m3532 -3017 c13 -16 12 -17 -3 -4 -10 7 -18 15 -18 17 0 8 8 3 21 -13z
m-2071 -1126 c0 -2 -10 -12 -22 -23 l-23 -19 19 23 c18 21 26 27 26 19z m25
-1145 c-3 -3 -11 0 -18 7 -9 10 -8 11 6 5 10 -3 15 -9 12 -12z"/>
<path d="M6010 5776 c0 -2 8 -10 18 -17 15 -13 16 -12 3 4 -13 16 -21 21 -21
13z"/>
<path d="M5629 2283 c-13 -16 -12 -17 4 -4 9 7 17 15 17 17 0 8 -8 3 -21 -13z"/>
<path d="M5065 1990 c-3 -6 1 -7 9 -4 18 7 21 14 7 14 -6 0 -13 -4 -16 -10z"/>
<path d="M7100 7066 c0 -2 8 -10 18 -17 15 -13 16 -12 3 4 -13 16 -21 21 -21
13z"/>
</g>
</svg>
